<?xml version="1.0" encoding="UTF-8" standalone="no"?>
<!DOCTYPE svg PUBLIC "-//W3C//DTD SVG 1.1//EN"
 "http://www.w3.org/Graphics/SVG/1.1/DTD/svg11.dtd">
<!-- Generated by graphviz version 13.0.1 (20250615.1724)
 -->
<!-- Pages: 1 -->
<svg width="293pt" height="557pt"
 viewBox="0.00 0.00 293.00 557.00" xmlns="http://www.w3.org/2000/svg" xmlns:xlink="http://www.w3.org/1999/xlink">
<g id="graph0" class="graph" transform="scale(1 1) rotate(0) translate(4 552.5)">
<polygon fill="white" stroke="none" points="-4,4 -4,-552.5 288.5,-552.5 288.5,4 -4,4"/>
<!-- 2703000955952 -->
<g id="node1" class="node">
<title>2703000955952</title>
<polygon fill="none" stroke="black" points="53.25,-158.5 53.25,-207.5 134.5,-207.5 134.5,-158.5 53.25,-158.5"/>
<text xml:space="preserve" text-anchor="middle" x="93.88" y="-190.2" font-family="Times New Roman,serif" font-size="14.00">data 5.5700</text>
<polyline fill="none" stroke="black" points="53.25,-183 134.5,-183"/>
<text xml:space="preserve" text-anchor="middle" x="93.88" y="-165.7" font-family="Times New Roman,serif" font-size="14.00">grad 1.0000</text>
</g>
<!-- op_2703003340048 -->
<g id="node7" class="node">
<title>op_2703003340048</title>
<ellipse fill="none" stroke="black" cx="93.88" cy="-104" rx="27" ry="18"/>
<text xml:space="preserve" text-anchor="middle" x="93.88" y="-98.95" font-family="Times New Roman,serif" font-size="14.00">relu</text>
</g>
<!-- 2703000955952&#45;&gt;op_2703003340048 -->
<g id="edge5" class="edge">
<title>2703000955952&#45;&gt;op_2703003340048</title>
<path fill="none" stroke="black" d="M93.88,-158.06C93.88,-150.23 93.88,-141.46 93.88,-133.33"/>
<polygon fill="black" stroke="black" points="97.38,-133.6 93.88,-123.6 90.38,-133.6 97.38,-133.6"/>
</g>
<!-- op_2703000955952 -->
<g id="node2" class="node">
<title>op_2703000955952</title>
<ellipse fill="none" stroke="black" cx="93.88" cy="-262" rx="27" ry="18"/>
<text xml:space="preserve" text-anchor="middle" x="93.88" y="-256.95" font-family="Times New Roman,serif" font-size="14.00">+</text>
</g>
<!-- op_2703000955952&#45;&gt;2703000955952 -->
<g id="edge1" class="edge">
<title>op_2703000955952&#45;&gt;2703000955952</title>
<path fill="none" stroke="black" d="M93.88,-243.53C93.88,-236.27 93.88,-227.57 93.88,-219.09"/>
<polygon fill="black" stroke="black" points="97.38,-219.34 93.88,-209.34 90.38,-219.34 97.38,-219.34"/>
</g>
<!-- 2703008988384 -->
<g id="node3" class="node">
<title>2703008988384</title>
<polygon fill="none" stroke="black" points="4.25,-316.5 4.25,-365.5 85.5,-365.5 85.5,-316.5 4.25,-316.5"/>
<text xml:space="preserve" text-anchor="middle" x="44.88" y="-348.2" font-family="Times New Roman,serif" font-size="14.00">data 4.0000</text>
<polyline fill="none" stroke="black" points="4.25,-341 85.5,-341"/>
<text xml:space="preserve" text-anchor="middle" x="44.88" y="-323.7" font-family="Times New Roman,serif" font-size="14.00">grad 1.0000</text>
</g>
<!-- 2703008988384&#45;&gt;op_2703000955952 -->
<g id="edge8" class="edge">
<title>2703008988384&#45;&gt;op_2703000955952</title>
<path fill="none" stroke="black" d="M60.11,-316.06C65.66,-307.33 71.96,-297.44 77.6,-288.58"/>
<polygon fill="black" stroke="black" points="80.38,-290.72 82.8,-280.41 74.48,-286.96 80.38,-290.72"/>
</g>
<!-- op_2703008988384 -->
<g id="node4" class="node">
<title>op_2703008988384</title>
<ellipse fill="none" stroke="black" cx="43.88" cy="-420" rx="27" ry="18"/>
<text xml:space="preserve" text-anchor="middle" x="43.88" y="-414.95" font-family="Times New Roman,serif" font-size="14.00">^2</text>
</g>
<!-- op_2703008988384&#45;&gt;2703008988384 -->
<g id="edge2" class="edge">
<title>op_2703008988384&#45;&gt;2703008988384</title>
<path fill="none" stroke="black" d="M44.1,-401.53C44.2,-394.27 44.31,-385.57 44.42,-377.09"/>
<polygon fill="black" stroke="black" points="47.92,-377.38 44.55,-367.34 40.92,-377.29 47.92,-377.38"/>
</g>
<!-- 2703010202352 -->
<g id="node5" class="node">
<title>2703010202352</title>
<polygon fill="none" stroke="black" points="104.25,-474.5 104.25,-548 185.5,-548 185.5,-474.5 104.25,-474.5"/>
<text xml:space="preserve" text-anchor="middle" x="144.88" y="-530.7" font-family="Times New Roman,serif" font-size="14.00">x</text>
<polyline fill="none" stroke="black" points="104.25,-523.5 185.5,-523.5"/>
<text xml:space="preserve" text-anchor="middle" x="144.88" y="-506.2" font-family="Times New Roman,serif" font-size="14.00">data 0.5000</text>
<polyline fill="none" stroke="black" points="104.25,-499 185.5,-499"/>
<text xml:space="preserve" text-anchor="middle" x="144.88" y="-481.7" font-family="Times New Roman,serif" font-size="14.00">grad 3.1400</text>
</g>
<!-- op_2703008988080 -->
<g id="node11" class="node">
<title>op_2703008988080</title>
<ellipse fill="none" stroke="black" cx="144.88" cy="-420" rx="27" ry="18"/>
<text xml:space="preserve" text-anchor="middle" x="144.88" y="-414.95" font-family="Times New Roman,serif" font-size="14.00">*</text>
</g>
<!-- 2703010202352&#45;&gt;op_2703008988080 -->
<g id="edge10" class="edge">
<title>2703010202352&#45;&gt;op_2703008988080</title>
<path fill="none" stroke="black" d="M144.88,-474.21C144.88,-466.08 144.88,-457.56 144.88,-449.77"/>
<polygon fill="black" stroke="black" points="148.38,-449.83 144.88,-439.83 141.38,-449.83 148.38,-449.83"/>
</g>
<!-- 2703003340048 -->
<g id="node6" class="node">
<title>2703003340048</title>
<polygon fill="none" stroke="black" points="53.25,-0.5 53.25,-49.5 134.5,-49.5 134.5,-0.5 53.25,-0.5"/>
<text xml:space="preserve" text-anchor="middle" x="93.88" y="-32.2" font-family="Times New Roman,serif" font-size="14.00">data 5.5700</text>
<polyline fill="none" stroke="black" points="53.25,-25 134.5,-25"/>
<text xml:space="preserve" text-anchor="middle" x="93.88" y="-7.7" font-family="Times New Roman,serif" font-size="14.00">grad 1.0000</text>
</g>
<!-- op_2703003340048&#45;&gt;2703003340048 -->
<g id="edge3" class="edge">
<title>op_2703003340048&#45;&gt;2703003340048</title>
<path fill="none" stroke="black" d="M93.88,-85.53C93.88,-78.27 93.88,-69.57 93.88,-61.09"/>
<polygon fill="black" stroke="black" points="97.38,-61.34 93.88,-51.34 90.38,-61.34 97.38,-61.34"/>
</g>
<!-- 2703009730384 -->
<g id="node8" class="node">
<title>2703009730384</title>
<polygon fill="none" stroke="black" points="0,-474.5 0,-548 85.75,-548 85.75,-474.5 0,-474.5"/>
<text xml:space="preserve" text-anchor="middle" x="42.88" y="-530.7" font-family="Times New Roman,serif" font-size="14.00">b</text>
<polyline fill="none" stroke="black" points="0,-523.5 85.75,-523.5"/>
<text xml:space="preserve" text-anchor="middle" x="42.88" y="-506.2" font-family="Times New Roman,serif" font-size="14.00">data &#45;2.0000</text>
<polyline fill="none" stroke="black" points="0,-499 85.75,-499"/>
<text xml:space="preserve" text-anchor="middle" x="42.88" y="-481.7" font-family="Times New Roman,serif" font-size="14.00">grad &#45;4.0000</text>
</g>
<!-- 2703009730384&#45;&gt;op_2703008988384 -->
<g id="edge9" class="edge">
<title>2703009730384&#45;&gt;op_2703008988384</title>
<path fill="none" stroke="black" d="M43.28,-474.21C43.37,-466.08 43.47,-457.56 43.55,-449.77"/>
<polygon fill="black" stroke="black" points="47.05,-449.87 43.66,-439.83 40.05,-449.79 47.05,-449.87"/>
</g>
<!-- 2703009729424 -->
<g id="node9" class="node">
<title>2703009729424</title>
<polygon fill="none" stroke="black" points="203.25,-474.5 203.25,-548 284.5,-548 284.5,-474.5 203.25,-474.5"/>
<text xml:space="preserve" text-anchor="middle" x="243.88" y="-530.7" font-family="Times New Roman,serif" font-size="14.00">w</text>
<polyline fill="none" stroke="black" points="203.25,-523.5 284.5,-523.5"/>
<text xml:space="preserve" text-anchor="middle" x="243.88" y="-506.2" font-family="Times New Roman,serif" font-size="14.00">data 3.1400</text>
<polyline fill="none" stroke="black" points="203.25,-499 284.5,-499"/>
<text xml:space="preserve" text-anchor="middle" x="243.88" y="-481.7" font-family="Times New Roman,serif" font-size="14.00">grad 0.5000</text>
</g>
<!-- 2703009729424&#45;&gt;op_2703008988080 -->
<g id="edge7" class="edge">
<title>2703009729424&#45;&gt;op_2703008988080</title>
<path fill="none" stroke="black" d="M203.89,-474.21C191.99,-463.47 179.32,-452.05 168.78,-442.55"/>
<polygon fill="black" stroke="black" points="171.39,-440.19 161.62,-436.1 166.7,-445.39 171.39,-440.19"/>
</g>
<!-- 2703008988080 -->
<g id="node10" class="node">
<title>2703008988080</title>
<polygon fill="none" stroke="black" points="104.25,-316.5 104.25,-365.5 185.5,-365.5 185.5,-316.5 104.25,-316.5"/>
<text xml:space="preserve" text-anchor="middle" x="144.88" y="-348.2" font-family="Times New Roman,serif" font-size="14.00">data 1.5700</text>
<polyline fill="none" stroke="black" points="104.25,-341 185.5,-341"/>
<text xml:space="preserve" text-anchor="middle" x="144.88" y="-323.7" font-family="Times New Roman,serif" font-size="14.00">grad 1.0000</text>
</g>
<!-- 2703008988080&#45;&gt;op_2703000955952 -->
<g id="edge6" class="edge">
<title>2703008988080&#45;&gt;op_2703000955952</title>
<path fill="none" stroke="black" d="M129.02,-316.06C123.15,-307.21 116.49,-297.15 110.56,-288.19"/>
<polygon fill="black" stroke="black" points="113.52,-286.33 105.08,-279.92 107.69,-290.19 113.52,-286.33"/>
</g>
<!-- op_2703008988080&#45;&gt;2703008988080 -->
<g id="edge4" class="edge">
<title>op_2703008988080&#45;&gt;2703008988080</title>
<path fill="none" stroke="black" d="M144.88,-401.53C144.88,-394.27 144.88,-385.57 144.88,-377.09"/>
<polygon fill="black" stroke="black" points="148.38,-377.34 144.88,-367.34 141.38,-377.34 148.38,-377.34"/>
</g>
</g>
</svg>
