<?xml version="1.0" encoding="UTF-8" standalone="no"?>
<!DOCTYPE svg PUBLIC "-//W3C//DTD SVG 1.1//EN"
 "http://www.w3.org/Graphics/SVG/1.1/DTD/svg11.dtd">
<!-- Generated by graphviz version 13.0.1 (20250615.1724)
 -->
<!-- Pages: 1 -->
<svg width="242pt" height="606pt"
 viewBox="0.00 0.00 242.00 606.00" xmlns="http://www.w3.org/2000/svg" xmlns:xlink="http://www.w3.org/1999/xlink">
<g id="graph0" class="graph" transform="scale(1 1) rotate(0) translate(4 601.5)">
<polygon fill="white" stroke="none" points="-4,4 -4,-601.5 237.75,-601.5 237.75,4 -4,4"/>
<!-- 1827389467696 -->
<g id="node1" class="node">
<title>1827389467696</title>
<polygon fill="none" stroke="black" points="51.5,-0.5 51.5,-74 132.75,-74 132.75,-0.5 51.5,-0.5"/>
<text xml:space="preserve" text-anchor="middle" x="92.12" y="-56.7" font-family="Times New Roman,serif" font-size="14.00">y</text>
<polyline fill="none" stroke="black" points="51.5,-49.5 132.75,-49.5"/>
<text xml:space="preserve" text-anchor="middle" x="92.12" y="-32.2" font-family="Times New Roman,serif" font-size="14.00">data 0.3941</text>
<polyline fill="none" stroke="black" points="51.5,-25 132.75,-25"/>
<text xml:space="preserve" text-anchor="middle" x="92.12" y="-7.7" font-family="Times New Roman,serif" font-size="14.00">grad 1.0000</text>
</g>
<!-- op_1827389467696 -->
<g id="node2" class="node">
<title>op_1827389467696</title>
<ellipse fill="none" stroke="black" cx="92.12" cy="-128.5" rx="41.12" ry="18"/>
<text xml:space="preserve" text-anchor="middle" x="92.12" y="-123.45" font-family="Times New Roman,serif" font-size="14.00">sigmoid</text>
</g>
<!-- op_1827389467696&#45;&gt;1827389467696 -->
<g id="edge1" class="edge">
<title>op_1827389467696&#45;&gt;1827389467696</title>
<path fill="none" stroke="black" d="M92.12,-110.29C92.12,-103.1 92.12,-94.35 92.12,-85.47"/>
<polygon fill="black" stroke="black" points="95.63,-85.76 92.13,-75.76 88.63,-85.76 95.63,-85.76"/>
</g>
<!-- 1827397500128 -->
<g id="node3" class="node">
<title>1827397500128</title>
<polygon fill="none" stroke="black" points="50,-183 50,-232 134.25,-232 134.25,-183 50,-183"/>
<text xml:space="preserve" text-anchor="middle" x="92.12" y="-214.7" font-family="Times New Roman,serif" font-size="14.00">data &#45;0.4300</text>
<polyline fill="none" stroke="black" points="50,-207.5 134.25,-207.5"/>
<text xml:space="preserve" text-anchor="middle" x="92.12" y="-190.2" font-family="Times New Roman,serif" font-size="14.00">grad 0.2388</text>
</g>
<!-- 1827397500128&#45;&gt;op_1827389467696 -->
<g id="edge4" class="edge">
<title>1827397500128&#45;&gt;op_1827389467696</title>
<path fill="none" stroke="black" d="M92.12,-182.56C92.12,-174.73 92.12,-165.96 92.12,-157.83"/>
<polygon fill="black" stroke="black" points="95.63,-158.1 92.13,-148.1 88.63,-158.1 95.63,-158.1"/>
</g>
<!-- op_1827397500128 -->
<g id="node4" class="node">
<title>op_1827397500128</title>
<ellipse fill="none" stroke="black" cx="92.12" cy="-286.5" rx="27" ry="18"/>
<text xml:space="preserve" text-anchor="middle" x="92.12" y="-281.45" font-family="Times New Roman,serif" font-size="14.00">+</text>
</g>
<!-- op_1827397500128&#45;&gt;1827397500128 -->
<g id="edge2" class="edge">
<title>op_1827397500128&#45;&gt;1827397500128</title>
<path fill="none" stroke="black" d="M92.12,-268.03C92.12,-260.77 92.12,-252.07 92.12,-243.59"/>
<polygon fill="black" stroke="black" points="95.63,-243.84 92.13,-233.84 88.63,-243.84 95.63,-243.84"/>
</g>
<!-- 1827398845168 -->
<g id="node5" class="node">
<title>1827398845168</title>
<polygon fill="none" stroke="black" points="53.5,-523.5 53.5,-597 134.75,-597 134.75,-523.5 53.5,-523.5"/>
<text xml:space="preserve" text-anchor="middle" x="94.12" y="-579.7" font-family="Times New Roman,serif" font-size="14.00">x</text>
<polyline fill="none" stroke="black" points="53.5,-572.5 134.75,-572.5"/>
<text xml:space="preserve" text-anchor="middle" x="94.12" y="-555.2" font-family="Times New Roman,serif" font-size="14.00">data 0.5000</text>
<polyline fill="none" stroke="black" points="53.5,-548 134.75,-548"/>
<text xml:space="preserve" text-anchor="middle" x="94.12" y="-530.7" font-family="Times New Roman,serif" font-size="14.00">grad 0.7498</text>
</g>
<!-- op_1827397499824 -->
<g id="node9" class="node">
<title>op_1827397499824</title>
<ellipse fill="none" stroke="black" cx="143.12" cy="-469" rx="27" ry="18"/>
<text xml:space="preserve" text-anchor="middle" x="143.12" y="-463.95" font-family="Times New Roman,serif" font-size="14.00">*</text>
</g>
<!-- 1827398845168&#45;&gt;op_1827397499824 -->
<g id="edge7" class="edge">
<title>1827398845168&#45;&gt;op_1827397499824</title>
<path fill="none" stroke="black" d="M113.91,-523.21C118.84,-514.23 124.04,-504.76 128.66,-496.35"/>
<polygon fill="black" stroke="black" points="131.67,-498.14 133.41,-487.69 125.53,-494.77 131.67,-498.14"/>
</g>
<!-- 1827398373200 -->
<g id="node6" class="node">
<title>1827398373200</title>
<polygon fill="none" stroke="black" points="0,-341 0,-414.5 84.25,-414.5 84.25,-341 0,-341"/>
<text xml:space="preserve" text-anchor="middle" x="42.12" y="-397.2" font-family="Times New Roman,serif" font-size="14.00">b</text>
<polyline fill="none" stroke="black" points="0,-390 84.25,-390"/>
<text xml:space="preserve" text-anchor="middle" x="42.12" y="-372.7" font-family="Times New Roman,serif" font-size="14.00">data &#45;2.0000</text>
<polyline fill="none" stroke="black" points="0,-365.5 84.25,-365.5"/>
<text xml:space="preserve" text-anchor="middle" x="42.12" y="-348.2" font-family="Times New Roman,serif" font-size="14.00">grad 0.2388</text>
</g>
<!-- 1827398373200&#45;&gt;op_1827397500128 -->
<g id="edge8" class="edge">
<title>1827398373200&#45;&gt;op_1827397500128</title>
<path fill="none" stroke="black" d="M62.32,-340.71C67.35,-331.73 72.65,-322.26 77.36,-313.85"/>
<polygon fill="black" stroke="black" points="80.38,-315.62 82.22,-305.19 74.28,-312.2 80.38,-315.62"/>
</g>
<!-- 1827398372240 -->
<g id="node7" class="node">
<title>1827398372240</title>
<polygon fill="none" stroke="black" points="152.5,-523.5 152.5,-597 233.75,-597 233.75,-523.5 152.5,-523.5"/>
<text xml:space="preserve" text-anchor="middle" x="193.12" y="-579.7" font-family="Times New Roman,serif" font-size="14.00">w</text>
<polyline fill="none" stroke="black" points="152.5,-572.5 233.75,-572.5"/>
<text xml:space="preserve" text-anchor="middle" x="193.12" y="-555.2" font-family="Times New Roman,serif" font-size="14.00">data 3.1400</text>
<polyline fill="none" stroke="black" points="152.5,-548 233.75,-548"/>
<text xml:space="preserve" text-anchor="middle" x="193.12" y="-530.7" font-family="Times New Roman,serif" font-size="14.00">grad 0.1194</text>
</g>
<!-- 1827398372240&#45;&gt;op_1827397499824 -->
<g id="edge5" class="edge">
<title>1827398372240&#45;&gt;op_1827397499824</title>
<path fill="none" stroke="black" d="M172.93,-523.21C167.9,-514.23 162.6,-504.76 157.89,-496.35"/>
<polygon fill="black" stroke="black" points="160.97,-494.7 153.03,-487.69 154.87,-498.12 160.97,-494.7"/>
</g>
<!-- 1827397499824 -->
<g id="node8" class="node">
<title>1827397499824</title>
<polygon fill="none" stroke="black" points="102.5,-353.25 102.5,-402.25 183.75,-402.25 183.75,-353.25 102.5,-353.25"/>
<text xml:space="preserve" text-anchor="middle" x="143.12" y="-384.95" font-family="Times New Roman,serif" font-size="14.00">data 1.5700</text>
<polyline fill="none" stroke="black" points="102.5,-377.75 183.75,-377.75"/>
<text xml:space="preserve" text-anchor="middle" x="143.12" y="-360.45" font-family="Times New Roman,serif" font-size="14.00">grad 0.2388</text>
</g>
<!-- 1827397499824&#45;&gt;op_1827397500128 -->
<g id="edge6" class="edge">
<title>1827397499824&#45;&gt;op_1827397500128</title>
<path fill="none" stroke="black" d="M129.46,-352.83C122.54,-340.73 114.14,-326.02 107.05,-313.62"/>
<polygon fill="black" stroke="black" points="110.22,-312.12 102.22,-305.17 104.15,-315.59 110.22,-312.12"/>
</g>
<!-- op_1827397499824&#45;&gt;1827397499824 -->
<g id="edge3" class="edge">
<title>op_1827397499824&#45;&gt;1827397499824</title>
<path fill="none" stroke="black" d="M143.12,-450.79C143.12,-440.32 143.12,-426.56 143.12,-413.88"/>
<polygon fill="black" stroke="black" points="146.63,-414.17 143.13,-404.17 139.63,-414.17 146.63,-414.17"/>
</g>
</g>
</svg>
